<svg width="154" height="46" viewBox="0 0 154 46" fill="none" xmlns="http://www.w3.org/2000/svg">
    <g clip-path="url(#clip0_4_52)">
        <path d="M38.2541 0.114405L4.98389 6.10435C2.23921 6.59792 0 9.29949 0 12.5406V32.7844C0 36.1051 2.23797 38.7432 4.96774 39.2517L38.2702 45.5922C42.319 46.3544 45.6511 43.3507 45.6511 39.013V6.99451C45.6511 2.21176 42.3177 -0.616622 38.2541 0.114405Z" fill="white"/>
        <path d="M50.8262 23.3295C50.8262 25.7128 52.0011 27.2705 53.9211 27.2705C55.2065 27.2705 56.1914 26.7297 57.0011 25.2366L59.8899 26.6502C58.7622 29.1926 56.5242 30.3687 53.8416 30.3687C50.0165 30.3687 47.2867 27.4446 47.2867 23.3295C47.2867 19.1982 50.0165 16.2902 53.8416 16.2902C56.5081 16.2902 58.7622 17.4663 59.8899 20.0075L57.0011 21.4223C56.1914 19.913 55.2065 19.3884 53.9211 19.3884C52.0011 19.3884 50.8262 20.9462 50.8262 23.3295ZM74.6999 23.3295C74.6999 27.4284 71.8584 30.3687 67.7463 30.3687C63.6355 30.3687 60.8263 27.4297 60.8263 23.3295C60.8263 19.2616 63.6355 16.2902 67.7476 16.2902C71.8745 16.2902 74.6999 19.2616 74.6999 23.3295ZM71.1753 23.3295C71.1753 20.9934 69.8899 19.3884 67.7476 19.3884C65.6363 19.3884 64.3496 20.9934 64.3496 23.3295C64.3496 25.6817 65.6363 27.2705 67.7476 27.2705C69.8899 27.2705 71.1753 25.6817 71.1753 23.3295ZM80.4451 20.644V30.0181H76.9689V16.6246H79.8105L80.049 17.9126C81.1915 16.8633 82.7464 16.2753 84.3026 16.2753C86.3654 16.2753 87.5093 17.0225 88.1277 18.1824C89.3026 16.9591 90.9842 16.2753 92.6521 16.2753C96.5891 16.2753 97.1442 19.0241 97.1442 21.8202V30.0206H93.6668V21.7257C93.6668 19.8832 93.1278 19.3747 91.8262 19.3747C90.7308 19.3747 89.5721 19.9143 88.7785 20.7087C88.8108 21.0904 88.8108 21.4546 88.8108 21.8376V30.0368H85.3334V21.7418C85.3334 19.8981 84.7944 19.3896 83.4928 19.3896C82.3813 19.3747 81.2872 19.8993 80.4451 20.6453V20.644ZM103.652 28.9551V34.7064H100.176V16.6396H103.017L103.287 18.165C104.272 17.0374 105.62 16.2902 107.224 16.2902C110.859 16.2902 113.509 19.2292 113.509 23.3295C113.509 27.3973 110.859 30.3687 107.224 30.3687C105.796 30.3687 104.588 29.844 103.652 28.9551ZM109.97 23.3295C109.97 20.9462 108.715 19.3884 106.811 19.3884C104.747 19.3884 103.652 20.9462 103.652 23.3295C103.652 25.7128 104.747 27.2705 106.811 27.2705C108.715 27.2705 109.97 25.7128 109.97 23.3295ZM119.064 30.1623C116.653 30.1623 115.239 28.9066 115.239 26.0944V11.2849H118.717V25.3472C118.717 26.4438 119.113 26.8727 120.033 26.8727V30.1151C119.764 30.13 119.429 30.1623 119.064 30.1623ZM123.907 10.3152C125.144 10.3152 126.096 11.3011 126.096 12.5406C126.096 13.7167 125.129 14.7013 123.907 14.7013C122.7 14.7013 121.716 13.7167 121.716 12.5406C121.716 11.3011 122.7 10.3152 123.907 10.3152ZM122.16 16.6396H125.637V30.0368H122.159V16.6396H122.16ZM131.446 23.3295C131.446 25.7128 132.62 27.2705 134.541 27.2705C135.827 27.2705 136.812 26.7297 137.62 25.2366L140.51 26.6502C139.382 29.1926 137.144 30.3687 134.462 30.3687C130.637 30.3687 127.906 27.4446 127.906 23.3295C127.906 19.1982 130.637 16.2902 134.462 16.2902C137.128 16.2902 139.382 17.4663 140.51 20.0075L137.62 21.4223C136.812 19.913 135.827 19.3884 134.541 19.3884C132.62 19.3884 131.446 20.9462 131.446 23.3295ZM150.319 28.8432C149.351 29.7806 147.938 30.401 146.461 30.401C143.795 30.401 141.43 28.4777 141.43 25.8719C141.43 23.0273 143.779 21.3278 146.653 21.3278C148.097 21.3278 149.066 21.8674 149.731 22.4716V21.073C149.731 19.9764 148.843 19.1982 147.192 19.1982C146.208 19.1982 144.97 19.3884 143.558 20.1679L142.573 17.5944C144.287 16.703 145.763 16.2902 147.795 16.2902C151.398 16.2902 153.224 18.3242 153.224 21.6772V30.0355H150.478L150.319 28.8432ZM144.97 25.8719C144.97 26.9361 145.954 27.636 147.192 27.636C148.446 27.636 149.382 26.9361 149.415 25.8719C149.415 24.8077 148.478 24.0766 147.192 24.0766C145.954 24.0766 144.97 24.8077 144.97 25.8719ZM37.6356 30.3687C35.492 30.3687 33.8105 29.399 32.5238 27.4446L34.6823 25.6817C35.9366 27.1586 36.7625 27.5565 38.0318 27.5565C38.9372 27.5565 39.6028 27.0791 39.6028 26.348C39.6028 25.443 38.7459 25.0302 36.4285 24.5205C34.2389 24.0443 32.9051 22.8371 32.9051 20.3904C32.9051 18.1178 34.8102 16.2106 37.9374 16.2106C40.1269 16.2106 41.7303 17.2749 42.6195 18.5144L40.4772 20.4377C40.0164 19.7862 39.0638 19.1186 37.7461 19.1186C36.683 19.1186 35.9838 19.5786 35.9838 20.3743C35.9838 21.073 36.4135 21.5019 38.2864 21.9308C41.0634 22.5661 42.7462 23.6465 42.7462 26.1417C42.7462 28.7313 40.5231 30.3687 37.6356 30.3687ZM31.873 22.7886C31.873 19.039 29.5394 16.2902 25.4609 16.2902C21.4768 16.2902 18.7942 19.1024 18.7942 23.3295C18.7942 27.4284 21.7624 30.3687 25.7143 30.3687C28.5707 30.3687 30.3492 29.1926 31.7302 26.777L28.9532 25.3311C28.0963 26.7459 26.842 27.3178 25.7143 27.3178C23.8414 27.3501 22.6666 26.2697 22.366 24.5366H31.7302C31.842 23.9809 31.873 23.2971 31.873 22.7899V22.7886ZM22.4443 21.804C22.746 20.0722 23.7309 19.0229 25.4125 19.0229C27.1586 19.0229 28.1907 20.0722 28.3335 21.804H22.4443ZM13.5719 11.2849V17.705C12.6355 16.8149 11.4283 16.2902 10.0162 16.2902C6.38106 16.2902 3.73077 19.2616 3.73077 23.3295C3.73077 27.4297 6.38106 30.3687 10.0162 30.3687C11.6183 30.3687 12.9534 29.6228 13.9531 28.4939L14.2226 30.0193H17.0642V11.2849H13.5719ZM10.4124 27.2705C8.5085 27.2705 7.25415 25.7128 7.25415 23.3295C7.25415 20.9462 8.5085 19.3884 10.4124 19.3884C12.4765 19.3884 13.5719 20.9462 13.5719 23.3295C13.5719 25.7128 12.4765 27.2705 10.4124 27.2705Z" fill="black"/>
    </g>
    <defs>
        <clipPath id="clip0_4_52">
            <rect width="154" height="46" fill="white"/>
        </clipPath>
    </defs>
</svg>