<svg width="64" height="72" viewBox="0 0 64 72" fill="none" xmlns="http://www.w3.org/2000/svg">
<path d="M63.8251 18.271V43.694C63.8251 53.7844 55.4047 61.9651 45.0187 61.9651H43.1165L33.4026 71.3963C33.0222 71.7659 32.4959 72 31.9126 72C31.3736 72 30.8854 71.809 30.5113 71.4887L30.3464 71.3285L30.3401 71.3224L20.7086 61.9651H18.8001C8.4204 61.9651 0 53.7844 0 43.694V18.271C0 8.1807 8.4204 0 18.8064 0H45.0187C55.4047 0 63.8251 8.1807 63.8251 18.271Z" fill="#18E898"/>
<path fill-rule="evenodd" clip-rule="evenodd" d="M31.4739 43.0361C34.1191 43.0361 36.323 41.8026 37.9544 39.9517L38.3943 42.4638H43.0671L43.1246 13.4059L44.8529 13.0952C48.2346 12.4873 51.0013 14.8368 51 18.8105V45.4347C51 49.0313 48.2374 51.5406 44.8612 50.9L17.1372 45.6328C14.8623 45.2011 13 43.0129 13 40.2509V23.4193C13 20.7242 14.865 18.4867 17.144 18.0769L37.3791 14.4389L37.3368 22.1913C35.7942 20.7366 33.8103 19.8555 31.4739 19.8555C25.4799 19.8555 21.1159 24.747 21.1159 31.4458C21.1159 38.1882 25.4786 43.0361 31.4739 43.0361ZM32.1353 37.9246C29.005 37.9246 26.9337 35.3689 26.9337 31.4472C26.9337 27.5254 29.0064 24.9683 32.1353 24.9683C35.5292 24.9683 37.3368 27.5254 37.3368 31.4472C37.3368 35.3689 35.5292 37.9246 32.1353 37.9246Z" fill="#5B5B5B"/>
</svg>
